<svg xmlns="http://www.w3.org/2000/svg" id="Calque_1" width="79.9" height="57.5">
  <style>
    .st0{fill:#231F20;} .st1{fill:#EC6430;}
  </style>
  <path d="M2.1 28.5H73v1.3H2.1zm15.8 19.8c-.9 1.2-3 2.1-4.9 1.9-2.8-.3-4.9-2.6-4.5-5.3.4-2.7 3.3-4.4 6.1-3.9 1.5.2 2.5 1 3.3 2.1l-.1-8.1c-1.3-.7-3.4-.9-3.4-.9C7.7 33.1 1.2 37.5.1 44-1 50.5 3.8 56.3 10.5 57.2c3.8.5 6.3-.4 7.3-.9l.1-8zm0-32.9c-.9 1.2-3 2.1-4.9 1.9-2.8-.3-4.9-2.6-4.5-5.3.4-2.7 3.3-4.4 6.1-3.9 1.5.2 2.5 1 3.3 2.1V2c-1.3-.7-3.4-.9-3.4-.9C7.7.1 1.2 4.5.1 11-1 17.5 3.8 23.3 10.5 24.2c3.8.5 6.3-.4 7.3-.9l.1-7.9zm30.5 41V34.3h8.9l3.5 10.8 3.3-10.8h8.8v22.1h-6.7v-8.7l-2.9 8.6h-4.8l-3-8.6v8.7zm-10.8-55h-10l-7.1 22.4H29l.6-2.7h6.7l1 2.7h8.4L37.6 1.4zm-6.8 14.5l1.8-6.4 2 6.4h-3.8zM60.3 1.4H48.4v22.4h8.3V17h3.7s7.9.4 7.9-7.9c-.1-7.7-8-7.7-8-7.7zm-3.6 10.1V7.1s3.7-.4 3.7 1.9c-.1 3.2-3.7 2.5-3.7 2.5zM35.3 33.6c-6.7-1-13.1 3.4-14.1 10-1.1 6.5 3.5 12.7 10.3 13.7 6.7 1 13.1-3.4 14.1-10 1-6.5-3.6-12.6-10.3-13.7zm2.6 12.7c-.4 2.6-2.8 4.4-5.3 4-2.5-.4-4.2-2.8-3.8-5.4.4-2.6 2.8-4.4 5.3-4 2.5.4 4.2 2.8 3.8 5.4z" class="st0"/>
  <path d="M72.1 0H80v6.4c0 4.4-2.2 10.8-8.9 10.8 0 0 4.3-.9 4.3-9.5h-3.3V0z" class="st1"/>
</svg>
