<svg version="1.1" id="Calque_2" xmlns="http://www.w3.org/2000/svg" x="0" y="0" viewBox="0 0 338.3 91.6" xml:space="preserve"><style>.st0{fill:#e5114d}.st1{fill:#183b68}</style><path class="st0" d="M12.4 20.2H17l12.4 28.3h-5.2l-2.9-6.8H8l-2.9 6.8H0l12.4-28.3zm7.1 17.1L14.6 26 9.8 37.3h9.7zM33.8 19.2h4.9v29.4h-4.9V19.2zM45.3 19.2h4.9v29.4h-4.9V19.2zM56.6 19.4h5.2V24h-5.2v-4.6zm.2 7.9h4.9v21.2h-4.9V27.3zM80.9 48.5v-2.6C79.5 47.6 77.2 49 74 49c-4 0-7.6-2.3-7.6-6.6v-.1c0-4.7 3.7-7 8.6-7 2.6 0 4.2.4 5.9.9v-.4c0-2.9-1.8-4.5-5.2-4.5-2.4 0-4.1.5-6.1 1.3l-1.3-3.9c2.3-1 4.6-1.8 8.1-1.8 6.3 0 9.3 3.3 9.3 9v12.6h-4.8zm.1-8.9c-1.2-.5-3-.8-4.9-.8-3.1 0-4.9 1.2-4.9 3.3v.1c0 2 1.8 3.1 4.1 3.1 3.2 0 5.6-1.8 5.6-4.5v-1.2zM90.4 37.9c0-7.1 4.8-11.1 9.9-11.1 3.5 0 5.7 1.8 7.2 3.7V19.2h4.9v29.4h-4.9V45c-1.6 2.2-3.8 4-7.2 4-5-.1-9.9-4-9.9-11.1zm17.2 0c0-4.2-2.9-6.9-6.2-6.9-3.3 0-6.1 2.6-6.1 6.8v.1c0 4.1 2.8 6.8 6.1 6.8s6.2-2.7 6.2-6.8zM117.2 38c0-6.2 4.3-11.1 10.4-11.1 6.8 0 10.2 5.3 10.2 11.4 0 .4 0 .9-.1 1.4h-15.6c.5 3.5 3 5.4 6.1 5.4 2.4 0 4.1-.9 5.7-2.5l2.9 2.5c-2 2.4-4.8 4-8.7 4-6.1-.1-10.9-4.6-10.9-11.1zm15.7-1.6c-.3-3.1-2.2-5.6-5.4-5.6-3 0-5.1 2.3-5.5 5.6h10.9zM155.2 20.4h4.9v11.7h13.4V20.4h4.9v28.1h-4.9V36.6h-13.4v11.9h-4.9V20.4zM198.1 48.5v-2.6c-1.4 1.7-3.7 3.1-6.9 3.1-4 0-7.6-2.3-7.6-6.6v-.1c0-4.7 3.7-7 8.6-7 2.6 0 4.2.4 5.9.9v-.4c0-2.9-1.8-4.5-5.2-4.5-2.4 0-4.1.5-6.1 1.3l-1.3-3.9c2.3-1 4.6-1.8 8.1-1.8 6.3 0 9.3 3.3 9.3 9v12.6h-4.8zm.2-8.9c-1.2-.5-3-.8-4.9-.8-3.1 0-4.9 1.2-4.9 3.3v.1c0 2 1.8 3.1 4.1 3.1 3.2 0 5.6-1.8 5.6-4.5v-1.2zM213.6 45.2v3.3h-4.9V19.2h4.9v11.7c1.6-2.2 3.8-4 7.2-4 5 0 9.9 4 9.9 11v.1c0 7-4.8 11-9.9 11-3.5-.1-5.7-1.8-7.2-3.8zm12.1-7.3c0-4.2-2.8-6.9-6.1-6.9s-6.2 2.7-6.2 6.8v.1c0 4.1 2.9 6.8 6.2 6.8 3.4 0 6.1-2.6 6.1-6.8zM235.7 19.4h5.2V24h-5.2v-4.6zm.2 7.9h4.9v21.2h-4.9V27.3zM248.1 42.6V31.5h-2.7v-4.2h2.7v-5.8h4.9v5.8h5.7v4.2H253v10.4c0 1.9 1 2.7 2.6 2.7 1.1 0 2.1-.2 3-.7v4c-1.2.7-2.6 1.1-4.4 1.1-3.6-.1-6.1-1.7-6.1-6.4zM276.5 48.5v-2.6c-1.4 1.7-3.7 3.1-6.9 3.1-4 0-7.6-2.3-7.6-6.6v-.1c0-4.7 3.7-7 8.6-7 2.6 0 4.2.4 5.9.9v-.4c0-2.9-1.8-4.5-5.2-4.5-2.4 0-4.1.5-6.1 1.3l-1.3-3.9c2.3-1 4.6-1.8 8.1-1.8 6.3 0 9.3 3.3 9.3 9v12.6h-4.8zm.1-8.9c-1.2-.5-3-.8-4.9-.8-3.1 0-4.9 1.2-4.9 3.3v.1c0 2 1.8 3.1 4.1 3.1 3.2 0 5.6-1.8 5.6-4.5v-1.2zM287.9 42.6V31.5h-2.7v-4.2h2.7v-5.8h4.9v5.8h5.7v4.2h-5.7v10.4c0 1.9 1 2.7 2.6 2.7 1.1 0 2.1-.2 3-.7v4c-1.2.7-2.6 1.1-4.4 1.1-3.6-.1-6.1-1.7-6.1-6.4z"/><path class="st1" d="M136.1 62.6h2.7v1h-2.7z"/><g><path class="st1" d="M178.5 84.5v1.9c0 .2-.1.3-.3.3h-6.5c-.2 0-.3-.1-.3-.3V72.8c0-.2.2-.3.3-.2l2 1c.2.1.3.3.3.5v10.1h4.1c.3 0 .4.1.4.3zM179.1 82c0-3.6 2.2-4.9 4.9-4.9s4.9 1.4 4.9 4.9c0 3.2-2.2 4.9-4.9 4.9-2.7-.1-4.9-1.7-4.9-4.9zm7.2 0c0-2.1-1-2.6-2.3-2.6-1.3 0-2.3.5-2.3 2.6s1 2.6 2.3 2.6c1.3 0 2.3-.6 2.3-2.6zM199 77.6v7.9c0 4.4-1.3 5.9-5.1 5.9-1 0-2-.3-2.6-.4-.1 0-.3-.1-.3-.3l.2-1.4c0-.2.1-.4.3-.3.5.1 1.4.2 2.1.2 2.3 0 2.7-.6 2.7-3.2v-.2c-.5.5-1.4 1-2.4 1-3 0-3.9-2.7-3.9-4.9 0-3.1 2.1-4.9 4.8-4.9.4 0 1 0 1.7.1h.6c.6 0 1.1.1 1.6.1.2.1.3.2.3.4zm-2.6 5.9v-4.1h-1.5c-1.3 0-2.2.6-2.2 2.6 0 1 .3 2.6 1.7 2.6.8-.1 1.5-.6 2-1.1zM209.9 80.9c0 1.3-.4 2-1.8 2l-4.6.1c.2 1.4 1.2 1.6 2.5 1.6 1 0 2-.5 2.6-.9.2-.1.3 0 .4.1l.7 1.3c.1.2-.1.3-.2.4-.6.5-1.9 1.4-4 1.4-2.2 0-4.8-1.1-4.8-4.9 0-3.3 1.9-4.9 4.7-4.9 3.6 0 4.5 3 4.5 3.8zm-2.7 0c-.2-1.3-.7-1.6-1.9-1.6-1.1 0-1.6.4-1.8 1.6h3.7zM236.2 80.9c0 1.3-.4 2-1.8 2l-4.6.1c.2 1.4 1.2 1.6 2.5 1.6 1 0 2-.5 2.6-.9.2-.1.3 0 .4.1l.7 1.3c.1.2-.1.3-.2.4-.6.5-1.9 1.4-4 1.4-2.2 0-4.8-1.1-4.8-4.9 0-3.3 1.9-4.9 4.7-4.9 3.7 0 4.5 3 4.5 3.8zm-2.6 0c-.2-1.3-.7-1.6-1.9-1.6-1.1 0-1.6.4-1.8 1.6h3.7zM254.5 86.5c-.7.3-1.6.4-2.2.4-1.8 0-2.9-1-2.9-2.8v-4.6h-.7c-.2 0-.3-.1-.3-.3V78l1-.5v-1c0-.2.2-.3.3-.4l1.9-.9c.2-.1.4 0 .4.3v1.9h1.9c.2 0 .3.1.3.3v1.6c0 .2-.1.3-.3.3H252v4.1c0 .8.5 1.1 1.1 1.1.2 0 .6 0 1.1-.2.2-.1.3.1.3.3l.3 1.4c0 .1-.1.1-.3.2zM222.4 77.1c-1.1 0-2.2.7-3 1.2-.4-.8-1.1-1.2-2.2-1.2s-2.2.7-2.9 1.3v-1.1c0-.2-.2-.3-.3-.2l-1.9 1c-.2.1-.4.3-.4.6v7.8c0 .2.1.3.3.3h2c.2 0 .2-.1.3-.2v-6.1c.4-.4 1-.9 1.7-.9.8 0 1.2.2 1.2 2.5v4.5c0 .2.1.3.3.3h2c.2 0 .3-.1.3-.3v-6.2c.4-.4 1-.7 1.7-.7.8 0 1.2.1 1.2 1.9v5.1c0 .2.1.3.3.3h2c.2 0 .3-.1.3-.3v-5.9c0-2.7-1.1-3.7-2.9-3.7zM243.8 77.1c-1.1 0-2.2.7-2.9 1.2v-1c0-.2-.2-.3-.3-.2l-1.9 1c-.2.1-.4.3-.4.6v7.8c0 .2.1.3.3.3h2c.1 0 .2-.1.2-.2v-6.1c.5-.5 1.2-1 2-1 .9 0 1.5.3 1.5 2.1v4.9c0 .2.1.3.3.3h2c.2 0 .3-.1.3-.3v-5.7c0-2.6-1-3.7-3.1-3.7z"/><g><path class="st1" d="M56.3 86.7h-.8c-.7 0-1-.4-1.2-1-.9.6-2.1 1.2-3.3 1.2-4 0-6.2-2.4-6.2-7.4s2.4-7.4 6.4-7.4c1.5 0 3.1.3 4.1 1 .1.1.1.2.1.4l-.8 1.4c-.1.2-.3.2-.5.1-.8-.5-1.8-.7-2.9-.7-2.3 0-4 1.6-4 5.3 0 3.7 1.5 5.3 3.8 5.3 1.1 0 2.3-.7 3.1-1.2v-3h-2.8c-.2 0-.3-.1-.3-.3v-1.5c0-.2.1-.3.3-.3h4.9c.2 0 .3.1.3.3v5.3c0 .8.1 1.4.2 2.2-.1.2-.2.3-.4.3zM64.2 76.8v1.9c0 .2-.1.3-.3.3-1.8.2-2.9.5-2.9 1.5v5.9c0 .2-.1.3-.3.3h-1.6c-.2 0-.3-.1-.3-.3V77c0-.2.1-.3.3-.3h.7c.8 0 1.3.5 1.3 1.3v.1c.8-.7 1.8-1.2 2.8-1.5.1-.1.3 0 .3.2zM65.1 81.7c0-3.8 2.2-5.2 5.1-5.2 2.9 0 5.1 1.5 5.1 5.2 0 3.4-2.2 5.2-5.1 5.2-2.9 0-5.1-1.8-5.1-5.2zm7.8 0c0-2.4-1.1-3.2-2.8-3.2-1.6 0-2.8.8-2.8 3.2 0 2.4 1.1 3.2 2.8 3.2 1.7 0 2.8-.8 2.8-3.2zM85.7 86.7H85c-.8 0-1.2-.5-1.3-1.3-.8.7-2 1.5-3.4 1.5-2.1 0-3.3-1.2-3.3-3.9v-6c0-.2.1-.3.3-.3H79c.2 0 .3.1.3.3v5c0 2.5.7 2.9 2.1 2.9.8 0 1.5-.5 2.1-1.1V77c0-.2.1-.3.3-.3h1.7c.2 0 .3.1.3.3v7.2c0 .8.1 1.4.2 2.2 0 .2-.2.3-.3.3zM97.6 81.7c0 3.3-2.1 5.2-5 5.2-.5 0-1.2 0-2-.1v4.5c0 .2-.1.3-.3.3h-1.7c-.2 0-.3-.1-.3-.3V77c0-.2.1-.3.3-.3h.7c.8 0 1.3.5 1.3 1.2.6-.6 1.6-1.4 2.9-1.4 3.2 0 4.1 2.9 4.1 5.2zm-2.3 0c0-1.3-.3-3.2-2.1-3.2-1 0-1.9.8-2.6 1.4v4.9c.7 0 1.4.1 2 .1 1.6 0 2.7-.9 2.7-3.2zM108.4 80.8c0 1.1-.4 1.7-1.6 1.7h-5.5c.2 1.9 1.4 2.4 3 2.3 1.2 0 2.2-.6 2.8-1.1.2-.1.3 0 .4.2l.6 1.1c.1.2-.1.3-.2.4-.7.5-2 1.4-4.1 1.4-2.3 0-5-1.2-5-5.2 0-3.5 1.9-5.2 4.8-5.2 3.9.1 4.8 3 4.8 4.4zm-2.3 0c-.1-1.7-.8-2.3-2.5-2.3-1.4 0-2.2.7-2.4 2.3h4.9zM126.7 86.7h-1.9c-.2 0-.3-.1-.3-.2l-1-3h-5.6l-1 3c-.1.2-.2.2-.3.2h-1.9c-.2 0-.3-.1-.2-.3l5-13.7c.1-.2.2-.2.3-.2h2c.2 0 .3.1.3.2l5 13.7c0 .1-.1.3-.4.3zm-3.9-5.4l-2.1-6.3-2.1 6.3h4.2zM135.4 85.6c-.6.5-1.9 1.3-3.6 1.3-2 0-4.3-1.2-4.3-5.2s2.3-5.2 4.3-5.2c1.6 0 2.5.4 3.5 1 .2.1.2.2.1.4l-.5 1c-.1.2-.3.3-.6.2-.6-.3-1.4-.6-2.2-.6-1.5 0-2.2 1.1-2.2 3.2s.8 3.2 2.2 3.2c.8 0 1.9-.4 2.4-.8.2-.2.4-.1.5 0l.6 1.1c0 .1-.1.3-.2.4zM142.4 86.5c-.8.3-1.7.4-2.3.4-1.9 0-2.7-1.1-2.7-3v-5.3h-.9c-.2 0-.3-.1-.3-.3v-1l1.2-.5v-1.3c0-.2.1-.3.3-.4l1.6-.8c.2-.1.4 0 .4.3v2.1h2.2c.2 0 .3.1.3.3v1.3c0 .2-.1.3-.3.3h-2.2v4.8c0 1.2.4 1.6 1.2 1.6.3 0 .9-.1 1.3-.2.2-.1.3.1.3.3l.2 1.1c0 .1-.2.2-.3.3zM144.2 77.8v8.6c0 .2.1.3.3.3h1.7c.2 0 .3-.1.3-.3V77c0-.2-.2-.4-.4-.3-.2.1-1.4.6-1.6.7-.2.1-.3.3-.3.4zM148.3 81.7c0-3.8 2.2-5.2 5.1-5.2 2.9 0 5.1 1.5 5.1 5.2 0 3.4-2.2 5.2-5.1 5.2-3 0-5.1-1.8-5.1-5.2zm7.8 0c0-2.4-1.1-3.2-2.8-3.2-1.7 0-2.8.8-2.8 3.2 0 2.4 1.1 3.2 2.8 3.2 1.7 0 2.8-.8 2.8-3.2zM168.9 80.4v6c0 .2-.1.3-.3.3H167c-.2 0-.3-.1-.3-.3v-5.2c0-1.9-.5-2.7-1.9-2.7-1.1 0-1.9.7-2.5 1.3v6.6c0 .2-.1.3-.3.3h-1.7c-.2 0-.3-.1-.3-.3V77c0-.2.2-.3.4-.3l1.6.6c.2.1.3.1.3.6 0-1 1.9-1.5 3.3-1.5 2 .1 3.3 1.1 3.3 4zM144 73.1l1.2-.7h.1l1.2.7.1.1v1.4s0 .1-.1.1l-1.2.7h-.1l-1.2-.7-.1-.1.1-1.5c0 .1 0 0 0 0zM45 62.6h210.6v1.1H45z"/></g></g><path class="st0" d="M336.7 22.9h-7.9V12.2c0-.9-.7-1.7-1.7-1.7-.9 0-1.6.7-1.6 1.7v12.4c0 .9.7 1.6 1.6 1.6h7.9v.8h-.1l-13.5 7.7h-.1L308 27V11.4h.1l13.4-7.8h.1l14.3 8.2c.4.2.8.3 1.2.2.4-.1.8-.4 1-.8.2-.4.3-.8.2-1.3-.1-.4-.4-.8-.8-1L322.3.1c-.3-.1-.5-.2-.8-.2-.3 0-.6.1-.8.2L305.5 9c-.5.3-.8.8-.8 1.4v17.3c0 .4.1.9.3 1.2.2.3.5.5.5.5l15.2 8.8c.5.3 1.1.3 1.6 0l15.2-8.7c.5-.3.8-.8.8-1.4v-3.4c0-1-.7-1.8-1.6-1.8z"/><path class="st0" d="M316.4 10.7c-.6 0-1.1.3-1.3.9l-5.7 12.6c-.3.7 0 1.6.7 1.9.7.3 1.6 0 1.9-.7l1.1-2.3h6.2l.9 2.2c.2.6.8.9 1.4.9.2 0 .4 0 .5-.1.4-.1.6-.4.8-.8.2-.4.2-.8 0-1.1l-5.1-12.6c-.2-.5-.7-.9-1.4-.9zm-2 9.5l2-4.3 1.7 4.3h-3.7z"/></svg>